<svg id="visual" viewBox="0 0 960 540" width="960" height="540" xmlns="http://www.w3.org/2000/svg" xmlns:xlink="http://www.w3.org/1999/xlink" version="1.1"><rect x="0" y="0" width="960" height="540" fill="#002233"></rect><path d="M0 112L16 125C32 138 64 164 96 174C128 184 160 178 192 159.7C224 141.3 256 110.7 288 111.7C320 112.7 352 145.3 384 162.5C416 179.7 448 181.3 480 178.2C512 175 544 167 576 153.7C608 140.3 640 121.7 672 121.3C704 121 736 139 768 144.5C800 150 832 143 864 130C896 117 928 98 944 88.5L960 79L960 0L944 0C928 0 896 0 864 0C832 0 800 0 768 0C736 0 704 0 672 0C640 0 608 0 576 0C544 0 512 0 480 0C448 0 416 0 384 0C352 0 320 0 288 0C256 0 224 0 192 0C160 0 128 0 96 0C64 0 32 0 16 0L0 0Z" fill="#0066FF" stroke-linecap="round" stroke-linejoin="miter"></path></svg>