<svg id="Layer_1" data-name="Layer 1" xmlns="http://www.w3.org/2000/svg" xmlns:xlink="http://www.w3.org/1999/xlink" viewBox="0 0 356.79 305.14" data-imageid="breakfast-monochromatic" imageName="Breakfast" class="illustrations_image" style="width: 151px;"><defs><linearGradient id="linear-gradient" x1="119.83" y1="207.85" x2="106.67" y2="270.28" gradientUnits="userSpaceOnUse"><stop offset="0.01"/><stop offset="0.13" stop-opacity="0.69"/><stop offset="1" stop-opacity="0"/></linearGradient><linearGradient id="linear-gradient-2" x1="83.87" y1="316.07" x2="92.51" y2="183.35" xlink:href="#linear-gradient"/><linearGradient id="linear-gradient-3" x1="51.59" y1="200.89" x2="196.68" y2="186.66" xlink:href="#linear-gradient"/><linearGradient id="linear-gradient-4" x1="142.07" y1="91.33" x2="348.52" y2="203.2" xlink:href="#linear-gradient"/><linearGradient id="linear-gradient-5" x1="112.29" y1="164.35" x2="264.84" y2="164.35" xlink:href="#linear-gradient"/><linearGradient id="linear-gradient-6" x1="144.69" y1="124.54" x2="163.76" y2="148.31" gradientUnits="userSpaceOnUse"><stop offset="0.27" stop-color="#fff" stop-opacity="0"/><stop offset="0.85" stop-color="#3e3e54"/></linearGradient><linearGradient id="linear-gradient-7" x1="136.58" y1="146.8" x2="192.9" y2="137.39" xlink:href="#linear-gradient-6"/><linearGradient id="linear-gradient-8" x1="178.26" y1="154.68" x2="138.98" y2="143.24" xlink:href="#linear-gradient-6"/><linearGradient id="linear-gradient-9" x1="193.2" y1="119.22" x2="214.9" y2="131" xlink:href="#linear-gradient-6"/><linearGradient id="linear-gradient-10" x1="86.87" y1="184.93" x2="124" y2="184.93" xlink:href="#linear-gradient"/><linearGradient id="linear-gradient-11" x1="58.87" y1="196.3" x2="93.96" y2="196.3" xlink:href="#linear-gradient"/></defs><title>2</title><path d="M378.84,199.7c-.25,11.08-3,22.23-6.57,32.8-3.89,11.48-8.82,22.73-16,32.46-43.69,59-138.13,51-202.13,49.69-16.47-.33-33.26-1.12-48.76-6.58-.79-.27-1.57-.57-2.35-.88-12.57-4.89-23.73-12.89-33.6-22.06l-.45-.42c-40.16-37.8-61.44-92-35.55-144.53C48,110.64,73.87,87.7,103,72.4c12.76-6.7,26.26-12.09,38.32-20,9.27-6.06,17.56-13.52,26.7-19.79,32.11-22,74.69-28.05,111.65-15.75A64.29,64.29,0,0,1,292,22.2C307.13,31,315.51,48,320.57,64.72s7.71,34.36,15.4,50.06c12,24.42,35.55,43.12,41.44,69.66A63.74,63.74,0,0,1,378.84,199.7Z" transform="translate(-22.07 -10.59)" fill="#64baaa" opacity="0.18" style="isolation:isolate" class="target-color"/><path d="M88.4,259c5.77,1.33,15.42,5.64,21.31,6.33l55,6.47q-9.78-14-19.82-27.82a15.23,15.23,0,0,0-3.52-3.85,14.86,14.86,0,0,0-4.23-1.76c-13-3.84-26.1-7.5-39.51-9.6a103,103,0,0,0-21.47-1.43c-5.25.3-13.93.77-16.46,5.9-1.94,3.93-3.66,7.88-5.94,11.63C64.47,252,75.77,256.1,88.4,259Z" transform="translate(-22.07 -10.59)" fill="url(#linear-gradient)"/><polygon points="102.12 149.78 84.96 106.79 32.18 225.81 145.22 257.92 102.12 149.78" fill="#64baaa" class="target-color"/><polygon points="102.12 149.78 84.96 106.79 32.18 225.81 145.22 257.92 102.12 149.78" fill="url(#linear-gradient-2)"/><path d="M119.64,149l5.38,13.5L154.77,236s-21.3-8.3-35.13-44.81A61,61,0,0,1,119.64,149Z" transform="translate(-22.07 -10.59)" fill="url(#linear-gradient-3)"/><circle cx="301.09" cy="177.49" r="33.21" fill="url(#linear-gradient-4)"/><circle cx="188.56" cy="164.35" r="76.28" fill="url(#linear-gradient-5)"/><circle cx="178.39" cy="164.35" r="76.28" fill="#fff"/><path d="M137.54,141.23a.78.78,0,0,0-.3.27.76.76,0,0,0,0,.47c.26,1,.53,2,.83,3a3.76,3.76,0,0,0,1.83-.85,61,61,0,0,1,8.88-4.57c6.5-3,12.76-6.6,19.5-9l-.23-5.53c-1.82,2-4.46,3.07-7,4l-4,1.53c-1.25.47-2.29,1.22-3.48,1.77s-2.17,1-3.24,1.57q-4.15,2.24-8.25,4.62Q139.81,139.85,137.54,141.23Z" transform="translate(-22.07 -10.59)" fill="#64baaa" class="target-color"/><path d="M139.65,149.7a.7.7,0,0,0-.21.35.75.75,0,0,0,.14.45c.53.89,1.08,1.77,1.65,2.63a3.78,3.78,0,0,0,1.51-1.33,62.81,62.81,0,0,1,7.2-6.92c5.37-4.75,10.35-10,16.12-14.21l-1.8-5.23c-1.16,2.46-3.4,4.21-5.56,5.87l-3.41,2.61c-1.06.81-1.84,1.83-2.83,2.7s-1.8,1.56-2.65,2.42c-2.24,2.22-4.43,4.49-6.59,6.78C142,147.1,140.83,148.4,139.65,149.7Z" transform="translate(-22.07 -10.59)" fill="#64baaa" class="target-color"/><path d="M137.54,141.23a.78.78,0,0,0-.3.27.76.76,0,0,0,0,.47c.26,1,.53,2,.83,3a3.76,3.76,0,0,0,1.83-.85,61,61,0,0,1,8.88-4.57c6.5-3,12.76-6.6,19.5-9l-.23-5.53c-1.82,2-4.46,3.07-7,4l-4,1.53c-1.25.47-2.29,1.22-3.48,1.77s-2.17,1-3.24,1.57q-4.15,2.24-8.25,4.62Q139.81,139.85,137.54,141.23Z" transform="translate(-22.07 -10.59)" fill="url(#linear-gradient-6)"/><circle cx="175.33" cy="164.35" r="41.19" fill="#64baaa" opacity="0.18" style="isolation:isolate" class="target-color"/><circle cx="179.65" cy="164.35" r="41.19" fill="#fff"/><path d="M167.29,214.23a53.41,53.41,0,0,1,36.81,5.89,89.76,89.76,0,0,0,8,4.53c8.16,3.6,17.68,2.42,26.13-.39,3.4-1.13,6.81-2.58,9.31-5.13,5.7-5.83,4.95-15.17,3.82-23.23-11.33,7.46-24.39,12.7-38,13.3-9.53.42-19.67-1.33-28.21,2.92" transform="translate(-22.07 -10.59)" fill="#64baaa" opacity="0.18" style="isolation:isolate" class="target-color"/><path d="M203.93,121.53a15.51,15.51,0,0,0-11.7,5.06C180.15,138.21,178,158.12,164.49,168c-3.59,2.62-7.74,4.32-11.58,6.55s-7.51,5.19-9.18,9.3a16.22,16.22,0,0,0,.06,11.32,32.47,32.47,0,0,0,6,9.83,15.83,15.83,0,0,0,5.48,4.63,18,18,0,0,0,7.13,1c5.17.05,10.35.1,15.5-.3,4.54-.34,9.06-1,13.61-.92,8.72.21,17.09,3.3,25.71,4.6s18.42.35,24.41-6c3.56-3.78,5.25-8.93,6.48-14,1.37-5.61,2.32-11.43,1.5-17.15-1.32-9.29-7.08-17.26-10.48-26-2.57-6.63-4.34-12.9-9.37-18.21a38.22,38.22,0,0,0-14.52-9.4A31.69,31.69,0,0,0,203.93,121.53Z" transform="translate(-22.07 -10.59)" fill="#64baaa" opacity="0.18" style="isolation:isolate" class="target-color"/><path d="M207.71,124.71a15.48,15.48,0,0,0-11.7,5.07c-12.08,11.61-14.2,31.53-27.74,41.4-3.58,2.62-7.74,4.32-11.58,6.56s-7.51,5.19-9.18,9.3a16.19,16.19,0,0,0,.06,11.31,32.47,32.47,0,0,0,6,9.83,15.86,15.86,0,0,0,5.48,4.64,18.22,18.22,0,0,0,7.13,1c5.17,0,10.35.09,15.5-.3,4.54-.35,9.07-1,13.61-.93,8.72.21,17.09,3.31,25.71,4.6s18.42.36,24.41-6c3.56-3.78,5.25-8.93,6.48-14,1.37-5.61,2.32-11.44,1.5-17.16-1.32-9.28-7.08-17.25-10.47-26-2.58-6.64-4.35-12.91-9.38-18.21a37.91,37.91,0,0,0-14.52-9.4A31.66,31.66,0,0,0,207.71,124.71Z" transform="translate(-22.07 -10.59)" fill="#fff"/><path d="M227.53,218.18a45.64,45.64,0,0,1-6.62-.51c-3.34-.5-6.69-1.28-9.92-2-5.12-1.19-10.42-2.43-15.73-2.56a78.66,78.66,0,0,0-9.47.55c-1.36.14-2.73.27-4.09.38-5.18.39-10.45.34-15.55.3a18.52,18.52,0,0,1-7.3-1.07,16.13,16.13,0,0,1-5.64-4.76,32.12,32.12,0,0,1-6.06-10,16.51,16.51,0,0,1-.06-11.63c1.46-3.59,4.52-6.7,9.38-9.53,1.4-.81,2.87-1.57,4.29-2.3a55.76,55.76,0,0,0,7.24-4.22c7.2-5.25,11.23-13.58,15.13-21.63,3.4-7,6.93-14.32,12.57-19.74a16,16,0,0,1,12-5.19h0a32.11,32.11,0,0,1,11.45,1.82,38.43,38.43,0,0,1,14.69,9.52c4.31,4.53,6.25,9.75,8.31,15.27.38,1,.76,2,1.17,3.08,1.18,3.05,2.68,6.06,4.13,9,2.7,5.43,5.5,11,6.37,17.14s-.34,12.54-1.51,17.33-2.87,10.23-6.59,14.17C240.72,216.84,233.52,218.18,227.53,218.18Zm-33.22-6h1c5.41.13,10.75,1.38,15.91,2.58,3.22.75,6.55,1.53,9.85,2,6.05.9,17.22,1.35,24-5.85,3.58-3.79,5.23-9.09,6.37-13.77s2.36-10.9,1.49-17-3.61-11.49-6.28-16.85c-1.46-2.93-3-6-4.17-9-.4-1-.79-2.07-1.17-3.1-2-5.43-3.93-10.56-8.11-15a37.5,37.5,0,0,0-14.34-9.29,30.92,30.92,0,0,0-11.13-1.76h0a17.06,17.06,0,0,0-5,.75,17.39,17.39,0,0,0-6.42,4.18c-5.53,5.31-9,12.52-12.39,19.48-3.95,8.16-8,16.59-15.4,22a55.65,55.65,0,0,1-7.37,4.29c-1.41.73-2.86,1.48-4.25,2.29-4.67,2.71-7.61,5.68-9,9.08a15.63,15.63,0,0,0,.07,11,31.25,31.25,0,0,0,5.9,9.69,15.46,15.46,0,0,0,5.32,4.51,17.75,17.75,0,0,0,6.94,1c5.08.05,10.33.1,15.47-.29,1.36-.11,2.71-.24,4.07-.37C188.52,212.45,191.42,212.16,194.31,212.16Z" transform="translate(-22.07 -10.59)" fill="#64baaa" class="target-color"/><circle cx="187.11" cy="166.73" r="16.95" fill="#64baaa" class="target-color"/><path d="M201.67,177.73a24.35,24.35,0,0,0,0,7.08c.12,1,.13,2.36-.81,2.83a2.57,2.57,0,0,1-2.28-.39,4.71,4.71,0,0,1-3.35-4.2c-.28-1.55-.54-3.11-.79-4.67a9.78,9.78,0,0,1,0-4.17,9.11,9.11,0,0,1,2.16-3.34,19.48,19.48,0,0,1,4-3.6c1-.61,2.26-1.07,3.27-.49,1.48.85,1.45,3.36.8,4.71C203.61,173.69,202.13,175.2,201.67,177.73Z" transform="translate(-22.07 -10.59)" fill="#fff" opacity="0.26"/><path d="M209.22,165.18a3.5,3.5,0,0,0-1.73,2.08,4,4,0,0,0,.18,2.4,3.33,3.33,0,0,0,.73,1.21,2.85,2.85,0,0,0,1.59.75,4.11,4.11,0,0,0,4.06-1.92c.68-1.14.86-3.27-.15-4.31S210.45,164.52,209.22,165.18Z" transform="translate(-22.07 -10.59)" fill="#fff" opacity="0.26"/><circle cx="295.17" cy="175.29" r="25.51" fill="#fff"/><circle cx="295.17" cy="175.29" r="21.04" fill="#3e3e54"/><path d="M335.93,200.19l10.19,9.09a2.52,2.52,0,0,1,.19,3.59h0a2.55,2.55,0,0,1-3.53.21l-9.71-8.42Z" transform="translate(-22.07 -10.59)" fill="#fff"/><path d="M165.2,121c.2,1,1.88,1.51,1.57,2.5a1.5,1.5,0,0,1-.56.67c-8,6.47-12.58,16.09-16.86,25.42a23.36,23.36,0,0,1-3.76,6.33,6.33,6.33,0,0,1-2.85-2.34c1.74-2.45,2.35-5.42,3.56-8.13,1-2.25,2.66-4.07,3.57-6.37,2-4.92,4.06-9.26,8-13C158.42,125.52,165.18,120.85,165.2,121Z" transform="translate(-22.07 -10.59)" fill="#64baaa" class="target-color"/><path d="M172.23,127.85c0,1,1.54,1.85,1,2.76a1.52,1.52,0,0,1-.69.55c-9.08,4.76-15.5,13.29-21.54,21.58a23.48,23.48,0,0,1-4.94,5.47,6.28,6.28,0,0,1-2.33-2.86c2.19-2,3.38-4.85,5.09-7.27,1.43-2,3.42-3.46,4.76-5.53,2.89-4.44,5.81-8.28,10.38-11.15C164.68,131,172.23,127.72,172.23,127.85Z" transform="translate(-22.07 -10.59)" fill="#64baaa" class="target-color"/><path d="M172.23,127.85c0,1,1.54,1.85,1,2.76a1.52,1.52,0,0,1-.69.55c-9.08,4.76-15.5,13.29-21.54,21.58a23.48,23.48,0,0,1-4.94,5.47,6.28,6.28,0,0,1-2.33-2.86c2.19-2,3.38-4.85,5.09-7.27,1.43-2,3.42-3.46,4.76-5.53,2.89-4.44,5.81-8.28,10.38-11.15C164.68,131,172.23,127.72,172.23,127.85Z" transform="translate(-22.07 -10.59)" fill="url(#linear-gradient-7)"/><path d="M159.81,149.61c2.3-2.91,4.86-5.59,7.42-8.27a42.26,42.26,0,0,1,5.22-4.88c2-1.5,4.31-2.62,6.32-4.14l1,1.91a.8.8,0,0,1,.14.53.82.82,0,0,1-.38.42c-3.28,2.29-4.94,6.21-7.39,9.37-2.69,3.47-6.36,6-9.44,9.18-4.71,4.8-8.05,10.93-13.38,15a13.21,13.21,0,0,0-2.5-3.79c2.48-1.55,4.58-4.35,6.43-6.64C155.58,155.52,157.56,152.47,159.81,149.61Z" transform="translate(-22.07 -10.59)" fill="#64baaa" class="target-color"/><path d="M159.81,149.61c2.3-2.91,4.86-5.59,7.42-8.27a42.26,42.26,0,0,1,5.22-4.88c2-1.5,4.31-2.62,6.32-4.14l1,1.91a.8.8,0,0,1,.14.53.82.82,0,0,1-.38.42c-3.28,2.29-4.94,6.21-7.39,9.37-2.69,3.47-6.36,6-9.44,9.18-4.71,4.8-8.05,10.93-13.38,15a13.21,13.21,0,0,0-2.5-3.79c2.48-1.55,4.58-4.35,6.43-6.64C155.58,155.52,157.56,152.47,159.81,149.61Z" transform="translate(-22.07 -10.59)" fill="url(#linear-gradient-8)"/><path d="M172.9,125.44c.21,1,1.89,1.48,1.6,2.47a1.48,1.48,0,0,1-.56.68c-7.88,6.58-12.35,16.27-16.51,25.65a23.51,23.51,0,0,1-3.67,6.38,6.32,6.32,0,0,1-2.88-2.3c1.71-2.47,2.28-5.46,3.45-8.18,1-2.26,2.6-4.11,3.48-6.41,1.89-4.95,3.93-9.32,7.79-13.09C166.18,130.07,172.87,125.31,172.9,125.44Z" transform="translate(-22.07 -10.59)" fill="#64baaa" class="target-color"/><path d="M198.19,109.62c-3.57-.66-7.33-1.21-10.76,0a12.36,12.36,0,0,0-7.34,7.47,15.46,15.46,0,0,0,.23,10.6A7.82,7.82,0,0,0,183.7,132a6.64,6.64,0,0,0,5.09.17,19.79,19.79,0,0,0,4.59-2.48l3.4-2.25a11.06,11.06,0,0,1,2.12-1.19,12.63,12.63,0,0,1,3.63-.57,40.17,40.17,0,0,0,5.12-.72,7.8,7.8,0,0,0,3.91-1.68,6.89,6.89,0,0,0,1.74-4.62,10,10,0,0,0-1.23-5.93,9,9,0,0,0-2.37-2.43,15.31,15.31,0,0,0-8.31-2.68,28.57,28.57,0,0,0-8.75,1.19" transform="translate(-22.07 -10.59)" fill="#64baaa" class="target-color"/><path d="M198.19,109.62c-3.57-.66-7.33-1.21-10.76,0a12.36,12.36,0,0,0-7.34,7.47,15.46,15.46,0,0,0,.23,10.6A7.82,7.82,0,0,0,183.7,132a6.64,6.64,0,0,0,5.09.17,19.79,19.79,0,0,0,4.59-2.48l3.4-2.25a11.06,11.06,0,0,1,2.12-1.19,12.63,12.63,0,0,1,3.63-.57,40.17,40.17,0,0,0,5.12-.72,7.8,7.8,0,0,0,3.91-1.68,6.89,6.89,0,0,0,1.74-4.62,10,10,0,0,0-1.23-5.93,9,9,0,0,0-2.37-2.43,15.31,15.31,0,0,0-8.31-2.68,28.57,28.57,0,0,0-8.75,1.19" transform="translate(-22.07 -10.59)" fill="url(#linear-gradient-9)"/><path d="M197,109c-3.57-.66-7.33-1.21-10.76,0a12.36,12.36,0,0,0-7.34,7.47,15.4,15.4,0,0,0,.24,10.6,7.76,7.76,0,0,0,3.37,4.35,6.65,6.65,0,0,0,5.09.17,19.79,19.79,0,0,0,4.59-2.48l3.4-2.25a11.06,11.06,0,0,1,2.12-1.19,12.63,12.63,0,0,1,3.63-.57,40.17,40.17,0,0,0,5.12-.72,7.8,7.8,0,0,0,3.91-1.68,6.89,6.89,0,0,0,1.74-4.62,10,10,0,0,0-1.23-5.93,9,9,0,0,0-2.36-2.43,15.37,15.37,0,0,0-8.32-2.68,28.57,28.57,0,0,0-8.75,1.19" transform="translate(-22.07 -10.59)" fill="#64baaa" class="target-color"/><path d="M204.34,110.5a3,3,0,0,1,.89.25,3.19,3.19,0,0,1,1.1,1.2c.29.48.58,1,.85,1.45a1.4,1.4,0,0,1,.23,1.22,1,1,0,0,1-.59.48,5.1,5.1,0,0,1-2.91-.15,17.17,17.17,0,0,0-4.75-.2,3.28,3.28,0,0,1-1.43-.1c-.95-.38-1.28-1.53-1.48-2.53a1.42,1.42,0,0,1,0-.71,1.07,1.07,0,0,1,.42-.5C198.46,109.59,202.3,110.15,204.34,110.5Z" transform="translate(-22.07 -10.59)" fill="#fff"/><path d="M203.67,116.15c-.33.19-.25.69-.07,1a21.06,21.06,0,0,1,1.18,2.12c.37,1,.18,2.21.59,3.22a.9.9,0,0,0,.29.4.77.77,0,0,0,.37.08,2.12,2.12,0,0,0,1.49-.72,6.5,6.5,0,0,0,.91-1.44,6.29,6.29,0,0,0,.72-2c.21-1.57-.8-2.1-2.1-2.46C206.16,116.18,204.53,115.66,203.67,116.15Z" transform="translate(-22.07 -10.59)" fill="#fff"/><path d="M202.2,117.86a3.4,3.4,0,0,1,1.08.87,3.24,3.24,0,0,1,.4,1.18,6.1,6.1,0,0,1,.18,1.75,2,2,0,0,1-.8,1.5,3,3,0,0,1-1.91.3l-3.46-.23a.57.57,0,0,1-.25-.06.51.51,0,0,1-.16-.24,4.78,4.78,0,0,1-.52-1.63c-.08-1,.45-1.93.47-2.93,0-.68-.68-1.92.07-2.39C198.51,115.21,201.28,117.3,202.2,117.86Z" transform="translate(-22.07 -10.59)" fill="#fff"/><path d="M194,120.88a5.34,5.34,0,0,0,0,2.07c.21.58.78,1.08.7,1.7s-.63.9-1.13,1.16l-4,2.1a1.23,1.23,0,0,1-1.05.19,1,1,0,0,1-.38-.34,5.49,5.49,0,0,1-.61-3.46,3.54,3.54,0,0,1,.78-2.51c.23-.22.57-.47.48-.79a4.56,4.56,0,0,0-2,3.53c-.17,1.39,0,2.81,0,4.22a1.13,1.13,0,0,1-.27.84,1,1,0,0,1-.56.21,6.51,6.51,0,0,1-2,0,1,1,0,0,1-.5-.19,1,1,0,0,1-.22-.46,7.87,7.87,0,0,1,3-8.14,4.75,4.75,0,0,0-2.75.89,9.32,9.32,0,0,1-1.18.83,1.32,1.32,0,0,1-1.37,0,1.48,1.48,0,0,1-.21-1.8,14.34,14.34,0,0,0,.94-1.72c.15-.46.15-1,.34-1.42a3.42,3.42,0,0,1,.79-1q1-1,2-2a9.21,9.21,0,0,1,1.62-1.31,8,8,0,0,1,2-.73,29.09,29.09,0,0,1,3.06-.62.61.61,0,0,1,.46,0,.67.67,0,0,1,.21.53,3.83,3.83,0,0,1-1.1,3.25,6.74,6.74,0,0,1-1.57.77,7.8,7.8,0,0,0-3.63,3.3l1.39.61c-.3-.55.13-1.23.6-1.66a7,7,0,0,1,3.7-1.74.49.49,0,0,1,.11.74,1.58,1.58,0,0,1-.74.43,9,9,0,0,0-3.23,2.07,1.11,1.11,0,0,0,1.34.38,3.33,3.33,0,0,0,1.2-.91c.59-.64,1.93-2.7,2.78-2.12S194,120,194,120.88Z" transform="translate(-22.07 -10.59)" fill="#fff"/><path d="M185.07,219.9a30,30,0,0,0-5.71,4.16,12.91,12.91,0,0,1-6.23,3.18c3.21-.23,6.39.75,9.6.73s6.87-1.51,7.68-4.62a1.66,1.66,0,0,1,1.1,2.13,11.69,11.69,0,0,0,1.1-3.1,1.49,1.49,0,0,0,1.55-1.39,2.76,2.76,0,0,1,.77,3,18.12,18.12,0,0,1-1.47,3c-2.08,4.14-1,9.1.08,13.6.55-3.46,3.72-5.87,5.13-9.07a9.6,9.6,0,0,0-.34-8.35c-.37-.69-.84-1.51-.44-2.19s1.51-1.1,1.16-1.77c-.59,1.1-2.23.86-3.41.44-1.72-.61-3.32,0-5-.27A8.79,8.79,0,0,0,185.07,219.9Z" transform="translate(-22.07 -10.59)" fill="#64baaa" class="target-color"/><path d="M124,227.36,88.92,137.74s-3.44,3.56-1.4,16.65,13.22,33.05,13.6,33.31,2.16,6.74,2.16,6.74,11.57,35.89,13.77,36.9S124,233.38,124,227.36Z" transform="translate(-22.07 -10.59)" fill="url(#linear-gradient-10)"/><path d="M58.87,157.67s2.42,18.69,5.85,23.26,5.34,4.45,5.34,4.45,4.07,7.12,5.34,12.46,6.61,37.63,9.66,38.9,8.64,1.53,8.9-1.27S77.3,196.19,77.3,196.19s-4.19-11.06-3.43-12.84,1.46-7.5.57-10-7-18.43-7-18.43,4.76,17.67,4.07,18.18a1.26,1.26,0,0,1-1.34.12L64.4,155.89l4,18.31-.76.12-5.4-17.86,3.49,18.82-1.39.32Z" transform="translate(-22.07 -10.59)" fill="url(#linear-gradient-11)"/><path d="M125.53,226.62,90.44,137S87,140.56,89,153.65s13.22,33,13.6,33.31,2.17,6.73,2.17,6.73,11.56,35.9,13.77,36.91S125.53,232.64,125.53,226.62Z" transform="translate(-22.07 -10.59)" fill="#fff"/><path d="M60.4,156.93s2.41,18.69,5.84,23.26,5.34,4.45,5.34,4.45,4.07,7.12,5.34,12.46,6.61,37.63,9.66,38.9,8.65,1.53,8.9-1.27-16.65-39.28-16.65-39.28-4.2-11.06-3.43-12.84,1.46-7.5.57-10-7.06-18.43-7.06-18.43,4.77,17.67,4.07,18.17a1.23,1.23,0,0,1-1.33.13l-5.72-17.35,4,18.31-.76.12-5.41-17.86,3.5,18.82-1.4.31Z" transform="translate(-22.07 -10.59)" fill="#fff"/><path d="M162.34,262.88c-4,.6-8.27,1.17-12-.52-1.65-.75-3.08-1.91-4.73-2.64-3.42-1.48-7.34-.92-11-1.34-8.34-1-15.24-6.87-23.25-9.37a81.5,81.5,0,0,0-11.12-2.16c-13.54-2.23-26.63-7.13-40.32-8.15a24.78,24.78,0,0,1,5-9.65c1.29-1.54,2.77-2.92,4.07-4.46,2.82-3.37,4.7-7.42,6.54-11.41a62.92,62.92,0,0,0,7,23.73c3.13-.82,6.41.16,9.59.8a44.93,44.93,0,0,0,18.26-.12,3.83,3.83,0,0,1,.57-3.73A43.54,43.54,0,0,0,134.12,240a4.7,4.7,0,0,0,2.67-.63c1.1-.79,1.4-2.34,2.43-3.22,1.34-1.16,3.39-.78,5.07-.21,5.42,1.83,8.19,3.53,10.31,8.62C157.14,250.72,159.89,256.73,162.34,262.88Z" transform="translate(-22.07 -10.59)" fill="#fff" opacity="0.26"/></svg>